<?xml version="1.0" encoding="utf-8"?>
<!-- Generator: Adobe Illustrator 26.5.0, SVG Export Plug-In . SVG Version: 6.00 Build 0)  -->
<svg version="1.1" id="Layer_1" xmlns="http://www.w3.org/2000/svg" xmlns:xlink="http://www.w3.org/1999/xlink" x="0px" y="0px"
	 viewBox="0 0 500 500" style="enable-background:new 0 0 500 500;" xml:space="preserve">
<style type="text/css">
	.st0{fill:#FFFFFF;}
</style>
<g>
	<path class="st0" d="M295.36,366.75c14.17-1.91,27.1-4.15,39.7-8.12c40.89-12.91,63.75-41.21,70.59-82.92
		c3.48-21.27,4.55-42.59-2.08-63.61c-3.65-11.57-9.27-22.07-17.09-31.3c-2.52-2.97-3.34-5.33-2.12-9.34
		c5.92-19.52,3.79-38.79-2.65-57.86c-1.15-3.39-3.19-4.03-6.2-3.99c-9.38,0.14-18.22,2.71-26.82,6.13
		c-11.53,4.59-22.31,10.64-32.56,17.6c-2.86,1.94-5.34,2.22-8.72,1.38c-38.09-9.44-76.25-9.45-114.34-0.02
		c-3.66,0.91-6.22,0.35-9.24-1.61c-16.2-10.52-32.92-19.92-52.41-22.96c-10.6-1.65-11.63-1.15-14.52,8.98
		c-5.12,17.93-6.2,35.95-0.43,53.96c0.83,2.58,0.31,4.26-1.38,6.29c-18.7,22.36-24.89,48.36-22.63,76.99
		c1.23,15.56,3.53,30.83,9.29,45.39c13.51,34.12,40.21,52.08,74.67,60.17c8.96,2.11,18.12,3.39,27.78,5.16
		c-8.24,9.02-12.87,19.58-14.49,31.45c-0.35,2.56-2.66,2.72-4.35,3.41c-28.19,11.36-51.95,3.6-68.03-22.07
		c-8.14-12.99-18.88-22.48-34.45-25.5c-3.57-0.69-7.02-0.6-10.48,0.45c-5.23,1.58-6.05,4.41-2.25,8.49c1.72,1.85,3.68,3.63,5.85,4.9
		c12.62,7.38,21.62,18.32,26.13,31.68c9.68,28.68,37.36,40.75,67.04,38.23c5.08-0.43,10.21-0.94,15.18-2.03
		c3.49-0.76,3.97,0.35,3.97,3.41c-0.02,13.57,0.24,27.14,0.24,40.71c0,11.11-7.43,16.49-18.08,12.95
		c-24.6-8.18-47.43-19.95-67.88-35.84C33.72,403.81,0,333.12,2.46,246.08C5.74,130.34,92.81,30.61,206.68,10.58
		c133.95-23.56,260.31,64.04,286.69,198.74c23.68,120.9-45.54,242.1-161.75,283.18c-13.01,4.6-20.31-0.49-20.26-14.18
		c0.08-21.44,0.19-42.87,0.31-64.31C311.77,396.68,308.48,380.47,295.36,366.75z"/>
</g>
</svg>
