<?xml version="1.0" encoding="utf-8"?>
<!-- Generator: Adobe Illustrator 26.5.0, SVG Export Plug-In . SVG Version: 6.00 Build 0)  -->
<svg version="1.1" id="Layer_1" xmlns="http://www.w3.org/2000/svg" xmlns:xlink="http://www.w3.org/1999/xlink" x="0px" y="0px"
	 viewBox="0 0 500 357.8" style="enable-background:new 0 0 500 357.8;" xml:space="preserve">
<style type="text/css">
	.st0{fill:#FFFFFF;}
</style>
<path class="st0" d="M464.2,159.2c-0.1,0-0.3,0-0.4,0c-15.9-41.5-56.2-71.1-103.3-71.1h-59.4c-8.5-9.4-25.5-16-45.4-16.5V39.6
	c7.8-1.1,13.8-7.9,13.8-16c0-8.9-7.2-16.1-16.1-16.1c-8.9,0-16.1,7.2-16.1,16.1c0,8.1,6,14.8,13.8,16v32.1
	c-19.8,0.5-36.9,7.1-45.4,16.5h-59.3c-30.5,0-58.2,12.4-78.2,32.4c-10.9,10.9-19.5,24-25.1,38.6c-0.2,0-0.3,0-0.5,0
	c-16,0-29,19.4-29,43.3c0,23.9,13,43.3,29,43.3c1.2,0,2.3-0.1,3.5-0.3c17.6,37.8,55.9,64,100.3,64h78.1l-22.7,41.7l181.1-44l0.2,0
	l7.4-1.8c0.1,0,0.2-0.1,0.4-0.1c18.4-5.2,34.8-15.1,47.9-28.2c9.1-9.1,16.6-19.7,22.1-31.6c1.1,0.2,2.2,0.3,3.4,0.3
	c16,0,29-19.4,29-43.3C493.2,178.6,480.2,159.2,464.2,159.2z M407.8,251.8c-13.7,13.7-32.6,22.2-53.5,22.2H153.1
	c-41.8,0-75.7-33.9-75.7-75.7c0-20.9,8.5-39.8,22.2-53.6c13.7-13.7,32.6-22.2,53.5-22.2h201.1c41.8,0,75.7,33.9,75.7,75.7
	C429.9,219.2,421.5,238.1,407.8,251.8z"/>
<g>
	<ellipse class="st0" cx="161.7" cy="201" rx="16.9" ry="16.4"/>
	<ellipse class="st0" cx="345" cy="201" rx="16.9" ry="16.4"/>
</g>
</svg>
